<!--Generated by EdrawMax, SVG Export full.svg full-->
<svg xmlns="http://www.w3.org/2000/svg" width="2514" viewBox="0 0 2514 688" xmlns:xlink="http://www.w3.org/1999/xlink" xmlns:ed="https://www.edrawsoft.cn/xml/2017/SVGExtensions/" xmlns:ev="http://www.w3.org/2001/xml-events" height="688"><defs/><g id="page4" transform="translate(5.5,5.5)" ed:name="full"><rect width="2504" fill="none" height="678" x="0" y="0"/><g id="group1" transform="translate(39.092000,72.449000)"><g id="shape2" transform="matrix(0.000000,-1.000000,-1.000000,0.000000,221.110600,566.752000)"><ed:custProps><ed:property ed:Format="#,###0.00" ed:Unit="USD" ed:Invisible="0" ed:Label="Cost" ed:Type="4" ed:Name="Cost" ed:Value=""/><ed:property ed:Format="[h]:[mm] &quot;eh:em&quot;" ed:Unit="" ed:Invisible="0" ed:Label="Duration" ed:Type="3" ed:Name="Duration" ed:Value=""/><ed:property ed:Format="@" ed:Unit="" ed:Invisible="0" ed:Label="Resources" ed:Type="0" ed:Name="Resources" ed:Value=""/></ed:custProps><path fill="#000000" d="M20.0,37.8L244.6,37.8L264.6,18.9L244.6,.0L20.0,.0L.0,18.9L20.0,37.8z" fill-rule="nonzero"/></g><g id="group3" transform="translate(0.000000,0.000300)"><g id="shape4" transform="matrix(0.707107,-0.707107,-0.707107,-0.707107,230.712415,200.439427)"><ed:custProps><ed:property ed:Format="#,###0.00" ed:Unit="USD" ed:Invisible="0" ed:Label="Cost" ed:Type="4" ed:Name="Cost" ed:Value=""/><ed:property ed:Format="[h]:[mm] &quot;eh:em&quot;" ed:Unit="" ed:Invisible="0" ed:Label="Duration" ed:Type="3" ed:Name="Duration" ed:Value=""/><ed:property ed:Format="@" ed:Unit="" ed:Invisible="0" ed:Label="Resources" ed:Type="0" ed:Name="Resources" ed:Value=""/></ed:custProps><path fill="#000000" d="M20.0,37.8L244.6,37.8L264.6,18.9L244.6,.0L20.0,.0L.0,18.9L20.0,37.8z" fill-rule="nonzero"/></g><g id="shape5" transform="matrix(-0.707107,-0.707107,-0.707107,0.707107,200.439427,173.714185)"><ed:custProps><ed:property ed:Format="#,###0.00" ed:Unit="USD" ed:Invisible="0" ed:Label="Cost" ed:Type="4" ed:Name="Cost" ed:Value=""/><ed:property ed:Format="[h]:[mm] &quot;eh:em&quot;" ed:Unit="" ed:Invisible="0" ed:Label="Duration" ed:Type="3" ed:Name="Duration" ed:Value=""/><ed:property ed:Format="@" ed:Unit="" ed:Invisible="0" ed:Label="Resources" ed:Type="0" ed:Name="Resources" ed:Value=""/></ed:custProps><path fill="#000000" d="M20.0,37.8L244.6,37.8L264.6,18.9L244.6,.0L20.0,.0L.0,18.9L20.0,37.8z" fill-rule="nonzero"/></g></g><g id="group6" transform="translate(0.000000,217.093400)"><g id="shape7" transform="matrix(0.707107,0.707107,-0.707107,0.707107,230.710708,-13.362635)"><ed:custProps><ed:property ed:Format="#,###0.00" ed:Unit="USD" ed:Invisible="0" ed:Label="Cost" ed:Type="4" ed:Name="Cost" ed:Value=""/><ed:property ed:Format="[h]:[mm] &quot;eh:em&quot;" ed:Unit="" ed:Invisible="0" ed:Label="Duration" ed:Type="3" ed:Name="Duration" ed:Value=""/><ed:property ed:Format="@" ed:Unit="" ed:Invisible="0" ed:Label="Resources" ed:Type="0" ed:Name="Resources" ed:Value=""/></ed:custProps><path fill="#000000" d="M20.0,37.8L244.6,37.8L264.6,18.9L244.6,.0L20.0,.0L.0,18.9L20.0,37.8z" fill-rule="nonzero"/></g><g id="shape8" transform="matrix(-0.707107,0.707107,-0.707107,-0.707107,200.439735,13.362608)"><ed:custProps><ed:property ed:Format="#,###0.00" ed:Unit="USD" ed:Invisible="0" ed:Label="Cost" ed:Type="4" ed:Name="Cost" ed:Value=""/><ed:property ed:Format="[h]:[mm] &quot;eh:em&quot;" ed:Unit="" ed:Invisible="0" ed:Label="Duration" ed:Type="3" ed:Name="Duration" ed:Value=""/><ed:property ed:Format="@" ed:Unit="" ed:Invisible="0" ed:Label="Resources" ed:Type="0" ed:Name="Resources" ed:Value=""/></ed:custProps><path fill="#000000" d="M20.0,37.8L244.6,37.8L264.6,18.9L244.6,.0L20.0,.0L.0,18.9L20.0,37.8z" fill-rule="nonzero"/></g></g><g id="group9" transform="translate(434.563000,0.001000)"><g id="shape10" transform="matrix(0.000000,-1.000000,-1.000000,0.000000,221.110600,566.752000)"><ed:custProps><ed:property ed:Format="#,###0.00" ed:Unit="USD" ed:Invisible="0" ed:Label="Cost" ed:Type="4" ed:Name="Cost" ed:Value=""/><ed:property ed:Format="[h]:[mm] &quot;eh:em&quot;" ed:Unit="" ed:Invisible="0" ed:Label="Duration" ed:Type="3" ed:Name="Duration" ed:Value=""/><ed:property ed:Format="@" ed:Unit="" ed:Invisible="0" ed:Label="Resources" ed:Type="0" ed:Name="Resources" ed:Value=""/></ed:custProps><path fill="#000000" d="M20.0,37.8L244.6,37.8L264.6,18.9L244.6,.0L20.0,.0L.0,18.9L20.0,37.8z" fill-rule="nonzero"/></g><g id="group11" transform="translate(0.000000,-0.000100)"><g id="shape12" transform="matrix(0.707107,-0.707107,-0.707107,-0.707107,230.712415,200.439427)"><ed:custProps><ed:property ed:Format="#,###0.00" ed:Unit="USD" ed:Invisible="0" ed:Label="Cost" ed:Type="4" ed:Name="Cost" ed:Value=""/><ed:property ed:Format="[h]:[mm] &quot;eh:em&quot;" ed:Unit="" ed:Invisible="0" ed:Label="Duration" ed:Type="3" ed:Name="Duration" ed:Value=""/><ed:property ed:Format="@" ed:Unit="" ed:Invisible="0" ed:Label="Resources" ed:Type="0" ed:Name="Resources" ed:Value=""/></ed:custProps><path fill="#000000" d="M20.0,37.8L244.6,37.8L264.6,18.9L244.6,.0L20.0,.0L.0,18.9L20.0,37.8z" fill-rule="nonzero"/></g><g id="shape13" transform="matrix(-0.707107,-0.707107,-0.707107,0.707107,200.439427,173.714185)"><ed:custProps><ed:property ed:Format="#,###0.00" ed:Unit="USD" ed:Invisible="0" ed:Label="Cost" ed:Type="4" ed:Name="Cost" ed:Value=""/><ed:property ed:Format="[h]:[mm] &quot;eh:em&quot;" ed:Unit="" ed:Invisible="0" ed:Label="Duration" ed:Type="3" ed:Name="Duration" ed:Value=""/><ed:property ed:Format="@" ed:Unit="" ed:Invisible="0" ed:Label="Resources" ed:Type="0" ed:Name="Resources" ed:Value=""/></ed:custProps><path fill="#000000" d="M20.0,37.8L244.6,37.8L264.6,18.9L244.6,.0L20.0,.0L.0,18.9L20.0,37.8z" fill-rule="nonzero"/></g></g><g id="group14" transform="translate(0.000000,217.093400)"><g id="shape15" transform="matrix(0.707107,0.707107,-0.707107,0.707107,230.710708,-13.362635)"><ed:custProps><ed:property ed:Format="#,###0.00" ed:Unit="USD" ed:Invisible="0" ed:Label="Cost" ed:Type="4" ed:Name="Cost" ed:Value=""/><ed:property ed:Format="[h]:[mm] &quot;eh:em&quot;" ed:Unit="" ed:Invisible="0" ed:Label="Duration" ed:Type="3" ed:Name="Duration" ed:Value=""/><ed:property ed:Format="@" ed:Unit="" ed:Invisible="0" ed:Label="Resources" ed:Type="0" ed:Name="Resources" ed:Value=""/></ed:custProps><path fill="#000000" d="M20.0,37.8L244.6,37.8L264.6,18.9L244.6,.0L20.0,.0L.0,18.9L20.0,37.8z" fill-rule="nonzero"/></g><g id="shape16" transform="matrix(-0.707107,0.707107,-0.707107,-0.707107,200.439735,13.362608)"><ed:custProps><ed:property ed:Format="#,###0.00" ed:Unit="USD" ed:Invisible="0" ed:Label="Cost" ed:Type="4" ed:Name="Cost" ed:Value=""/><ed:property ed:Format="[h]:[mm] &quot;eh:em&quot;" ed:Unit="" ed:Invisible="0" ed:Label="Duration" ed:Type="3" ed:Name="Duration" ed:Value=""/><ed:property ed:Format="@" ed:Unit="" ed:Invisible="0" ed:Label="Resources" ed:Type="0" ed:Name="Resources" ed:Value=""/></ed:custProps><path fill="#000000" d="M20.0,37.8L244.6,37.8L264.6,18.9L244.6,.0L20.0,.0L.0,18.9L20.0,37.8z" fill-rule="nonzero"/></g></g></g></g><g id="shape17" transform="translate(921.551473,38.449000)"><text style="fill:#000000;font-family:Helvetica Neue,PingFang SC,Microsoft YaHei,Arial;font-size:200px;font-weight:bold" xml:space="preserve"><tspan style="font-size:133px" textLength="1459.0" x="4.4" y="139.5">Reinforcement Learning </tspan><tspan style="font-size:133px" textLength="1265.0" x="4.4" y="298.5">Evolution Foundation</tspan></text></g><g id="shape18" transform="translate(925.551473,459.201000)"><text style="fill:#191919;font-family:微软雅黑,PingFang SC,Microsoft YaHei,Arial;font-size:200px" xml:space="preserve"><tspan style="font-size:133px" textLength="1509.0" x="4.3" y="142.0">强 化 学 习 演 进 基 金 会</tspan></text></g><path id="shape19" stroke-width="13.333333015441895" fill="none" d="M.0,.0L1412.6,.0" transform="translate(935.433071,415.374668)" stroke="#191919"/></g></svg>